<svg width="21" height="20" viewBox="0 0 21 20" fill="none" xmlns="http://www.w3.org/2000/svg">
<g clip-path="url(#clip0_27_16)">
<path d="M15.6794 10.5226L7.218 19.8232C7.02231 20.0385 6.75371 20.1645 6.46179 20.1781C6.16987 20.1916 5.89093 20.091 5.67645 19.8947L4.99357 19.2705C4.54919 18.8638 4.51756 18.1707 4.92304 17.7251L12.0283 9.91505L4.23299 2.78805C4.01851 2.5918 3.89276 2.32276 3.87941 2.03028C3.86604 1.73747 3.96676 1.45792 4.16245 1.24248L4.78559 0.557867C4.98144 0.342583 5.24988 0.216532 5.5418 0.202987C5.83371 0.189442 6.11266 0.290095 6.32714 0.48634L15.6087 8.97182C15.8237 9.16869 15.9491 9.43905 15.9619 9.73205C15.9759 10.0261 15.8756 10.3068 15.6794 10.5226Z" fill="#595555"/>
</g>
<defs>
<clipPath id="clip0_27_16">
<rect width="19.9396" height="20" fill="white" transform="matrix(1 0 2.22607e-08 -1 0.138916 20)"/>
</clipPath>
</defs>
</svg>
