<svg width="20" height="20" viewBox="0 0 20 20" fill="none" xmlns="http://www.w3.org/2000/svg">
<g clip-path="url(#clip0_16_8)">
<path d="M10.5243 4.41419L19.8239 12.8962C20.0391 13.0924 20.1651 13.3617 20.1786 13.6544C20.192 13.9471 20.0913 14.2268 19.8949 14.4419L19.2705 15.1267C18.8635 15.5724 18.1703 15.6043 17.7248 15.1978L9.91561 8.07525L2.78514 15.8931C2.5888 16.1082 2.31968 16.2343 2.02715 16.2478C1.73429 16.2613 1.45472 16.1603 1.23931 15.9642L0.554774 15.3395C0.339516 15.1432 0.213526 14.8741 0.200067 14.5814C0.186608 14.2887 0.28736 14.0089 0.4837 13.7938L8.97331 4.48551C9.17028 4.26989 9.44071 4.14401 9.73376 4.13118C10.0279 4.11701 10.3086 4.21755 10.5243 4.41419Z" fill="white"/>
</g>
<defs>
<clipPath id="clip0_16_8">
<rect width="20" height="20" fill="white" transform="matrix(0 -1 -1 -2.23281e-08 20 20)"/>
</clipPath>
</defs>
</svg>
