<svg width="21" height="20" viewBox="0 0 21 20" fill="none" xmlns="http://www.w3.org/2000/svg">
<g clip-path="url(#clip0_27_8)">
<path d="M5.32935 9.47742L13.7908 0.176819C13.9865 -0.0384587 14.2551 -0.164517 14.547 -0.178062C14.8389 -0.191607 15.1179 -0.0909537 15.3323 0.105292L16.0152 0.729469C16.4596 1.13622 16.4912 1.82934 16.0858 2.27487L8.98048 10.085L16.7758 17.212C16.9903 17.4082 17.116 17.6772 17.1294 17.9697C17.1427 18.2625 17.042 18.5421 16.8463 18.7575L16.2232 19.4421C16.0273 19.6574 15.7589 19.7835 15.467 19.797C15.1751 19.8106 14.8961 19.7099 14.6817 19.5137L5.40013 11.0282C5.18513 10.8313 5.05964 10.561 5.04692 10.268C5.03285 9.97387 5.13319 9.6932 5.32935 9.47742Z" fill="#595555"/>
</g>
<defs>
<clipPath id="clip0_27_8">
<rect width="19.9396" height="20" fill="white" transform="matrix(-1 0 -2.22607e-08 1 20.87 0)"/>
</clipPath>
</defs>
</svg>
